# xmcd CD database file
#
# Track frame offsets:
#	150
#	15387
#	26270
#	34402
#	43982
#	52842
#	65045
#	74015
#	84052
#	94817
#	103895
#	114935
#	126475
#	135770
#	147632
#
# Disc length: 2107 seconds
#
# Revision: 2
# Processed by: cddbd v1.5.2PL0 Copyright (c) Steve Scherf et al.
# Submitted via: CDex 1.70beta2
#
DISCID=d008390f
DTITLE=John D. Loudermilk - Language Of Love
DYEAR=1961
DGENRE=Country
TTITLE0=Darling Jane (John D. Loudermilk)
TTITLE1=Song Of The Lonely Teen (John D. Loudermilk)
TTITLE2=Language Of Love (John D. Loudermilk)
TTITLE3=The Rocks Of Reno (John D. Loudermilk)
TTITLE4=You Reap Just What You Sow (John D. Loudermilk)
TTITLE5=Two Strangers In Love (John D. Loudermilk)
TTITLE6=Mister Jones (John D. Loudermilk)
TTITLE7=Jimmy's Song (John D. Loudermilk)
TTITLE8=Blue Train (John D. Loudermilk)
TTITLE9=What Would You Take For Me (John D. Loudermilk)
TTITLE10=Mary's No Longer Mine (John D. Loudermilk)
TTITLE11=The Great Snowman (John D. Loudermilk)
TTITLE12=(bonus track) Thou Shalt Not Steal (John D. Loudermilk)
TTITLE13=(bonus track) Callin' Dr. Casey (John D. Loudermilk)
TTITLE14=Road Hog (John D. Loudermilk)
EXTD=YEAR: 1961
EXTT0=
EXTT1=
EXTT2=
EXTT3=
EXTT4=
EXTT5=
EXTT6=
EXTT7=
EXTT8=
EXTT9=
EXTT10=
EXTT11=
EXTT12=
EXTT13=
EXTT14=
PLAYORDER=
